<svg aria-hidden="true" style="width:0;height:0;position:absolute;overflow:hidden" xmlns="http://www.w3.org/2000/svg"><defs><symbol id="icon-advantages-1" viewBox="0 0 21 32"><path d="M1.6-.32a90.137 90.137 0 0 1-.32 7.68c.612.892 1.465 1.319 2.56 1.28A30.352 30.352 0 0 1 7.36 8c-.1.879.006 1.732.32 2.56 3.29 2.225 5.103 1.371 5.44-2.56 1.179.143 2.352.356 3.52.64 1.095.039 1.948-.388 2.56-1.28a90.137 90.137 0 0 1-.32-7.68H1.6zM15.68 4.8c-3.301-.226-5.115 1.268-5.44 4.48C9.915 6.068 8.101 4.574 4.8 4.8V2.24h10.88V4.8zM-.32 12.48v5.12c1.198 4.606 2.264 9.3 3.2 14.08H17.6c.936-4.78 2.002-9.474 3.2-14.08v-5.12H-.32zm2.56 3.2c5.22-.74 10.553-.847 16-.32-3.145 5.645-7.625 6.925-13.44 3.84a38.366 38.366 0 0 1-2.56-3.52zm1.28 6.4c4.267 1.674 8.534 1.674 12.8 0l.64.64a28.344 28.344 0 0 0-1.28 6.4H4.8a51.123 51.123 0 0 0-1.28-7.04z"/></symbol><symbol id="icon-advantages-2" viewBox="0 0 32 32"><path d="M2.88-.32a10.125 10.125 0 0 0 .64 4.8C1.637 5.399.357 6.786-.32 8.64v5.76a683.935 683.935 0 0 1 3.84 17.28h24.96a16.609 16.609 0 0 0 3.2-3.2v-6.4a13.005 13.005 0 0 0-4.16-1.92c.761-3.941-.306-4.581-3.2-1.92-.068-2.477.252-4.93.96-7.36a39.753 39.753 0 0 1-2.24-6.08 10.187 10.187 0 0 0-4.8-1.6c1.059-.924 1.486-2.098 1.28-3.52h-2.56a7.271 7.271 0 0 0-1.28 3.84 8.266 8.266 0 0 1-3.2-.32c-1.974-1.985-4.107-2.092-6.4-.32a4.55 4.55 0 0 1-.64-3.2H2.88zM8 4.8c2.811.016 4.091 1.51 3.84 4.48a63.087 63.087 0 0 1-8.96-.32C4.22 8.095 5.713 7.775 7.36 8c.082-1.098.296-2.165.64-3.2zm6.4 1.92c.66.547 1.406.974 2.24 1.28 1.956-1.865 3.556-1.652 4.8.64a19.93 19.93 0 0 1-7.04.64V6.72zM2.88 12.48c6.404-.107 12.804 0 19.2.32-1.734 4.5-5.041 6.74-9.92 6.72-4.877-.132-7.97-2.478-9.28-7.04zm16.64 8.32c-1.427 2.401-1.64 4.961-.64 7.68-4.46.638-8.94.851-13.44.64a40.262 40.262 0 0 0-1.28-7.68l.64-1.28c4.812 2.303 9.718 2.516 14.72.64zm1.92 2.56c1.344-.015 2.517.412 3.52 1.28 3.927-2.047 4.994-.981 3.2 3.2a4.64 4.64 0 0 1-1.6 1.28c-1.274-.593-2.554-.7-3.84-.32-1.799-1.54-2.226-3.353-1.28-5.44z"/></symbol><symbol id="icon-advantages-3" viewBox="0 0 28 32"><path d="M4.16-.32A22.27 22.27 0 0 0-.32 4.16v7.68c2.798 4.247 6.318 7.873 10.56 10.88.319 2.979.426 5.966.32 8.96h6.4a62.94 62.94 0 0 1 .32-8.96c4.242-3.007 7.762-6.633 10.56-10.88V4.16a22.27 22.27 0 0 0-4.48-4.48h-6.4a19.144 19.144 0 0 0-3.2 3.2 19.144 19.144 0 0 0-3.2-3.2h-6.4zM6.72 1.6c2.663.796 5.009 2.076 7.04 3.84 1.976-1.637 4.216-2.917 6.72-3.84 4.523 1.58 6.016 4.567 4.48 8.96-1.011-3.874-3.145-4.727-6.4-2.56-.867 5.884-1.614 5.884-2.24 0-2.058-1.805-3.872-1.591-5.44.64-.69 4.898-1.33 4.684-1.92-.64-3.255-2.167-5.389-1.314-6.4 2.56-1.465-4.271-.079-7.258 4.16-8.96zm-.64 7.68c.49 1.398.917 2.891 1.28 4.48 1.788 1.664 3.601 1.664 5.44 0 .64-5.12 1.28-5.12 1.92 0 4.463 2.171 6.597.678 6.4-4.48a48.914 48.914 0 0 0 2.24 3.84c-2.463 3.534-5.663 6.094-9.6 7.68-3.712-1.465-6.806-3.812-9.28-7.04.445-1.436.978-2.93 1.6-4.48zm7.04 14.08c.817.764 1.244 1.831 1.28 3.2l-.64 3.2a16.553 16.553 0 0 1-.64-6.4z"/></symbol><symbol id="icon-facebook" viewBox="0 0 32 32"><path d="M9.882-.471h11.294c4.392 2.51 7.843 5.961 10.353 10.353v11.294c-2.51 4.392-5.961 7.843-10.353 10.353H9.882C5.49 29.019 2.039 25.568-.471 21.176V9.882C2.039 5.49 5.49 2.039 9.882-.471z"/><path d="M14.588 6.118h5.647v2.824h-2.824v2.824h2.824v3.765h-2.824v9.412h-3.765c.342-3.937-.286-7.701-1.882-11.294a30.833 30.833 0 0 0 2.824-7.529z"/></symbol><symbol id="icon-github" viewBox="0 0 32 32"><path d="M9.882-.471h11.294c4.392 2.51 7.843 5.961 10.353 10.353v11.294c-2.51 4.392-5.961 7.843-10.353 10.353H9.882C5.49 29.019 2.039 25.568-.471 21.176V9.882C2.039 5.49 5.49 2.039 9.882-.471z"/><path d="M11.765 19.294c-1.929.773-1.616 1.715.941 2.824 1.201.834 1.201 1.775 0 2.824-7.163-4.109-8.418-9.599-3.765-16.471 6.358-3.937 11.534-2.839 15.529 3.294 1.576 6.101-.463 10.493-6.118 13.176l-.941-2.824c.858-2.503 2.112-4.856 3.765-7.059a22.06 22.06 0 0 0-1.882-5.176c-2.51 1.255-5.02 1.255-7.529 0-2.255 3.268-2.255 6.405 0 9.412z"/><path d="M11.765 19.294c2.161.286 2.474 1.227.941 2.824-2.557-1.109-2.87-2.05-.941-2.824z"/></symbol><symbol id="icon-logo" viewBox="0 0 127 32"><path fill="#d31641" style="fill:var(--color6,#d31641)" opacity=".944" d="M11.2-.32h9.6c11.791 6.361 14.245 15.321 7.36 26.88a23.52 23.52 0 0 1-6.72 4.48 3.155 3.155 0 0 1 .32-1.92c1.493-.64 2.56-1.707 3.2-3.2.179-3.434.819-6.634 1.92-9.6-.703-3.843-2.516-7.149-5.44-9.92-8.896-3.334-14.016-.241-15.36 9.28a2.332 2.332 0 0 0-.96.64c1.101 2.966 1.741 6.166 1.92 9.6.64 1.493 1.707 2.56 3.2 3.2.309.607.416 1.247.32 1.92-5.14-2.154-8.767-5.78-10.88-10.88V11.2C2.027 5.867 5.867 2.027 11.2-.32z"/><path fill="#fceff2" style="fill:var(--color7,#fceff2)" opacity=".991" d="M21.44 31.04c-.427 0-.64.213-.64.64h-1.28v-2.56h-7.04v2.56H11.2c0-.427-.213-.64-.64-.64a3.155 3.155 0 0 0-.32-1.92c-1.493-.64-2.56-1.707-3.2-3.2-.179-3.434-.819-6.634-1.92-9.6.265-.293.585-.506.96-.64C7.424 6.159 12.544 3.066 21.44 6.4c2.924 2.771 4.737 6.077 5.44 9.92-1.101 2.966-1.741 6.166-1.92 9.6-.64 1.493-1.707 2.56-3.2 3.2a3.155 3.155 0 0 0-.32 1.92z"/><path fill="#d3183f" style="fill:var(--color8,#d3183f)" d="M13.12 6.72c3.266-.535 6.04.318 8.32 2.56-3.646 2.511-7.272 2.511-10.88 0 .875-.858 1.728-1.711 2.56-2.56z"/><path fill="#d41341" style="fill:var(--color9,#d41341)" opacity=".967" d="M49.6 14.4c-.73 1.923-.73 3.95 0 6.08-1.068 2.248-2.775 2.781-5.12 1.6a23.449 23.449 0 0 1 0-10.88c1.689-1.122 3.395-1.335 5.12-.64v3.84z"/><path fill="#d41441" style="fill:var(--color10,#d41441)" opacity=".892" d="M49.6 14.4c2.149-3.882 5.349-5.056 9.6-3.52 1.446 3.336.486 4.51-2.88 3.52-1.508.891-1.828 2.065-.96 3.52 1.11.417 2.177.31 3.2-.32 2.183 3.21 1.33 4.916-2.56 5.12-4.969-.498-7.102-3.271-6.4-8.32z"/><path fill="#d41441" style="fill:var(--color10,#d41441)" opacity=".918" d="M60.48 10.56h8.96c-.743 3.84-.85 7.68-.32 11.52-2.773.853-5.547.853-8.32 0-.32-3.834-.426-7.674-.32-11.52z"/><path fill="#d41341" style="fill:var(--color9,#d41341)" opacity=".944" d="M80.32 13.76A5.397 5.397 0 0 0 80 11.2c-2.721-1.762-5.388-1.656-8 .32-2.281 3.043-2.495 6.243-.64 9.6 2.846 1.933 5.726 2.04 8.64.32 2.109 1.611 4.243 1.611 6.4 0 1.627 1.496 3.44 1.71 5.44.64v-1.92c-1.415-1.276-1.628-2.77-.64-4.48.853-1.067.853-2.133 0-3.2-.398-1.174-1.252-1.921-2.56-2.24a16.148 16.148 0 0 0-6.4 0c-.93 1.055-1.57 2.229-1.92 3.52zm0 0v5.76a6.934 6.934 0 0 0-1.92-1.92 5.83 5.83 0 0 1-3.2.64c-.664-3.287.509-4.354 3.52-3.2.647-.356 1.18-.782 1.6-1.28z"/><path fill="#d31441" style="fill:var(--color11,#d31441)" opacity=".907" d="M127.04 10.56v11.52c-5.45.063-10.89.276-16.32.64-1.475.01-2.542-.63-3.2-1.92-.756 1.188-1.823 1.828-3.2 1.92-4.15.085-8.31-.129-12.48-.64v-1.92c.193-1.638-.02-3.131-.64-4.48.853-1.067.853-2.133 0-3.2.491-.43.918-.963 1.28-1.6a63.082 63.082 0 0 1 8.96-.32c-.77 2.499-1.196 4.952-1.28 7.36.863.494 1.396 1.241 1.6 2.24l2.56-8.96c2-.824 4.026-.824 6.08 0a53.966 53.966 0 0 1 2.88 9.6c.124-3.36.444-6.667.96-9.92 3.516-1.095 5.542.079 6.08 3.52.783-3.559 3.023-4.839 6.72-3.84z"/><path fill="#d3163c" style="fill:var(--color12,#d3163c)" d="M8.64 11.2c4.694 2.521 9.388 2.521 14.08 0a6.314 6.314 0 0 1 .64 3.84H8.64V11.2z"/><path fill="#d42341" style="fill:var(--color13,#d42341)" d="M6.72 16.96h18.56v1.92h-5.76a8.398 8.398 0 0 1-.64 4.48 2.332 2.332 0 0 1-.96-.64 11.797 11.797 0 0 1-.32-3.84H6.72v-1.92z"/><path fill="#d52243" style="fill:var(--color14,#d52243)" d="M8.64 20.8h7.68c-.232 4.163 1.368 5.229 4.8 3.2a8.268 8.268 0 0 0 .32-3.2h1.92c.9 5.815-1.553 7.949-7.36 6.4-5.807 1.549-8.26-.585-7.36-6.4z"/><path fill="#d3183f" style="fill:var(--color8,#d3183f)" opacity=".938" d="M19.52 31.68h-7.04v-2.56h7.04v2.56z"/></symbol><symbol id="icon-mob-menu-clos" viewBox="0 0 32 32"><path d="M1-1h2c3.291 4.624 7.291 8.624 12 12a63.726 63.726 0 0 0 10-9 9.86 9.86 0 0 1 6-1v2c-4.624 3.291-8.624 7.291-12 12a63.726 63.726 0 0 0 9 10 9.86 9.86 0 0 1 1 6h-2c-3.291-4.624-7.291-8.624-12-12a63.726 63.726 0 0 0-10 9 9.86 9.86 0 0 1-6 1v-2c4.624-3.291 8.624-7.291 12-12A63.726 63.726 0 0 0 2 5a9.86 9.86 0 0 1-1-6z"/></symbol><symbol id="icon-mob-menu-open" viewBox="0 0 46 32"><path d="M-1.143-1.143h45.714v4.571H-1.143v-4.571zM-1.143 12.571h45.714v4.571H-1.143v-4.571zM-1.143 26.286h45.714v4.571H-1.143v-4.571z"/></symbol><symbol id="icon-more" viewBox="0 0 26 32"><path d="M-1.6-1.6H8c5.9 4.019 10.167 9.353 12.8 16-2.633 6.647-6.9 11.981-12.8 16h-9.6V24c12.8-6.4 12.8-12.8 0-19.2v-6.4z"/></symbol><symbol id="icon-product" viewBox="0 0 32 32"><path d="M10-.4h11.2a622.388 622.388 0 0 0 5.6 3.6 55.131 55.131 0 0 1 4.8 6.8v11.2a622.388 622.388 0 0 0-3.6 5.6 55.131 55.131 0 0 1-6.8 4.8H10A622.388 622.388 0 0 0 4.4 28a55.131 55.131 0 0 1-4.8-6.8V10a622.388 622.388 0 0 0 3.6-5.6A55.131 55.131 0 0 1 10-.4z"/><path d="M15.6 11.6c5.893 2.17 6.16 4.836.8 8-.875-1.094-.608-2.028.8-2.8-7.467-.8-7.467-1.6 0-2.4-1.058-.653-1.592-1.586-1.6-2.8z"/></symbol><symbol id="icon-product-3" viewBox="0 0 139 32"><path d="M2.667-2.667H24c7.111 10.667 7.111 21.333 0 32H2.667C2.667 25.777.889 24-2.666 24V2.667c3.556 0 5.333-1.778 5.333-5.333zM56-2.667h21.333c7.111 10.667 7.111 21.333 0 32H56c-7.111-10.667-7.111-21.333 0-32zM109.333-2.667h21.333c0 3.556 1.778 5.333 5.333 5.333v21.333c-3.556 0-5.333 1.778-5.333 5.333h-21.333c-7.111-10.667-7.111-21.333 0-32z"/></symbol><symbol id="icon-telegram" viewBox="0 0 32 32"><path d="M9.882-.471h11.294c4.392 2.51 7.843 5.961 10.353 10.353v11.294c-2.51 4.392-5.961 7.843-10.353 10.353H9.882C5.49 29.019 2.039 25.568-.471 21.176V9.882C2.039 5.49 5.49 2.039 9.882-.471z"/><path d="M21.176 8H24a66.208 66.208 0 0 1-3.765 15.059 17.815 17.815 0 0 1-4.706-2.824l-2.824 1.882c-1.255-1.569-1.255-3.137 0-4.706 8.803-6.579 8.489-7.049-.941-1.412-2.403.801-4.599.488-6.588-.941a583.926 583.926 0 0 1 16-7.059z"/></symbol><symbol id="icon-arrow-white" viewBox="0 0 17 24"><path fill="none" stroke="#fff" style="stroke:var(--color1,#fff)" stroke-linejoin="round" stroke-linecap="round" stroke-width="4.8" d="M3.366 2.4 13.641 12 3.366 21.6"/></symbol><symbol id="icon-arrow-red" viewBox="0 0 19 24"><path fill="none" stroke="#d41443" style="stroke:var(--color2,#d41443)" stroke-linejoin="round" stroke-linecap="round" stroke-width="4.8" d="M3.879 2.4 14.505 12 3.879 21.6"/></symbol><symbol id="icon-git" viewBox="0 0 32 32"><path d="M16 0C7.212 0 0 7.212 0 16c0 7.499 5.262 14.312 12.25 16v-5.293c-.692.152-1.33.156-2.034-.052-.946-.279-1.714-.909-2.284-1.869-.364-.613-1.008-1.278-1.68-1.23l-.165-1.868c1.453-.124 2.711.886 3.457 2.14.332.558.713.884 1.203 1.029.473.14.982.072 1.574-.137.149-1.186.692-1.63 1.102-2.255v-.001c-4.167-.622-5.828-2.832-6.488-4.578-.874-2.317-.405-5.212 1.14-7.041.03-.036.084-.129.063-.194-.708-2.139.155-3.909.187-4.097.817.242.95-.243 3.551 1.337l.449.27c.188.112.129.048.317.034A13.544 13.544 0 0 1 16 7.723c1.136.015 2.273.178 3.404.484l.145.015c-.013-.002.04-.009.127-.062 3.248-1.968 3.132-1.324 4.003-1.608.032.188.883 1.987.182 4.099-.095.291 2.816 2.956 1.203 7.235-.659 1.746-2.32 3.957-6.487 4.578v.001c.534.814 1.176 1.247 1.173 2.927V32C26.738 30.312 32 23.499 32 16c0-8.788-7.212-16-16-16z"/></symbol></defs></svg>